<svg aria-hidden="true" style="position: absolute; width: 0; height: 0; overflow: hidden;" version="1.1" xmlns="http://www.w3.org/2000/svg" xmlns:xlink="http://www.w3.org/1999/xlink">
<defs>

<symbol id="icon-shuffle" viewBox="0 0 32 32">
<title>shuffle</title>
<path d="M26.012 12.829c0.311 0.309 0.814 0.307 1.122-0.005l4.635-4.675c0.308-0.31 0.307-0.811-0.002-1.12l-4.636-4.636c-0.31-0.31-0.812-0.31-1.122 0s-0.31 0.812 0 1.122l3.281 3.281h-4.767c-2.238 0.006-4.346 1.056-5.7 2.839l-3.848 5.097-3.848-5.097c-1.353-1.783-3.461-2.833-5.7-2.839h-4.635c-0.438 0-0.794 0.355-0.794 0.794s0.355 0.794 0.794 0.794h4.634c1.741 0.004 3.381 0.821 4.433 2.208l4.12 5.457-4.12 5.457c-1.053 1.387-2.692 2.203-4.433 2.208h-4.635c-0.438 0-0.794 0.355-0.794 0.794s0.355 0.794 0.794 0.794h4.634c2.239-0.006 4.347-1.055 5.7-2.839l3.848-5.096 3.848 5.097c1.353 1.783 3.461 2.833 5.7 2.839h4.767l-3.281 3.281c-0.202 0.2-0.281 0.493-0.208 0.768s0.288 0.489 0.563 0.563c0.275 0.073 0.568-0.006 0.768-0.208l4.635-4.636c0.309-0.309 0.31-0.809 0.002-1.12l-4.636-4.675c-0.199-0.205-0.493-0.288-0.769-0.216s-0.494 0.286-0.568 0.563c-0.074 0.276 0.006 0.57 0.21 0.771l3.295 3.322h-4.778c-1.741-0.004-3.381-0.821-4.433-2.208l-4.12-5.457 4.12-5.457c1.053-1.387 2.692-2.203 4.433-2.208h4.778l-3.294 3.322c-0.309 0.311-0.307 0.814 0.005 1.122z"></path>
</symbol>

<symbol id="icon-heart" viewBox="0 0 32 32">
<title>heart</title>
<path d="M16 30.22c-0.456 0-0.895-0.165-1.237-0.465-1.293-1.13-2.539-2.193-3.639-3.13l-0.006-0.005c-3.224-2.747-6.008-5.12-7.945-7.457-2.165-2.613-3.174-5.090-3.174-7.796 0-2.629 0.902-5.055 2.539-6.831 1.657-1.797 3.929-2.786 6.401-2.786 1.847 0 3.539 0.584 5.028 1.736 0.751 0.581 1.433 1.293 2.033 2.123 0.6-0.83 1.281-1.541 2.033-2.123 1.489-1.152 3.181-1.736 5.028-1.736 2.471 0 4.744 0.99 6.401 2.786 1.637 1.776 2.538 4.201 2.538 6.831 0 2.706-1.008 5.184-3.174 7.796-1.937 2.337-4.721 4.71-7.944 7.457-1.102 0.938-2.35 2.002-3.645 3.136-0.342 0.299-0.782 0.464-1.237 0.464zM8.939 3.624c-1.942 0-3.725 0.775-5.023 2.182-1.317 1.428-2.042 3.403-2.042 5.56 0 2.276 0.846 4.312 2.743 6.6 1.833 2.212 4.56 4.536 7.717 7.227l0.006 0.005c1.104 0.941 2.355 2.007 3.657 3.146 1.31-1.141 2.563-2.209 3.669-3.151 3.157-2.691 5.884-5.014 7.717-7.226 1.896-2.289 2.742-4.324 2.742-6.6 0-2.157-0.725-4.132-2.042-5.56-1.297-1.407-3.081-2.182-5.023-2.182-1.422 0-2.728 0.452-3.881 1.344-1.028 0.795-1.743 1.8-2.163 2.503-0.216 0.362-0.596 0.577-1.016 0.577s-0.801-0.216-1.016-0.577c-0.419-0.703-1.135-1.708-2.163-2.503-1.153-0.892-2.459-1.344-3.881-1.344z"></path>
</symbol>

<symbol id="icon-clock" viewBox="0 0 32 32">
<title>clock</title>
<path d="M16 0c-8.822 0-16 7.178-16 16s7.178 16 16 16 16-7.178 16-16-7.178-16-16-16zM16 30c-7.72 0-14-6.28-14-14s6.28-14 14-14 14 6.28 14 14-6.28 14-14 14z"></path>
<path d="M17 6h-2v10.414l6.293 6.293 1.414-1.414-5.707-5.707z"></path>
</symbol>

<symbol id="icon-add-to-cart" viewBox="0 0 32 32">
<title>add-to-cart</title>
<path d="M31.12 6.072c-0.593-0.678-1.439-1.051-2.381-1.051h-7.112v-4.083c0-0.518-0.42-0.938-0.938-0.938h-5.021c-0.518 0-0.938 0.42-0.938 0.938v4.083h-8.77l-0.229-1.719c-0.247-1.852-1.536-3.302-2.935-3.302h-1.674c-0.518 0-0.938 0.42-0.938 0.938s0.42 0.938 0.938 0.938h1.674c0.301 0 0.938 0.636 1.076 1.675l2.684 20.127c0.118 0.887 0.574 1.718 1.283 2.339 0.526 0.461 1.148 0.767 1.799 0.895-0.265 0.488-0.416 1.047-0.416 1.641 0 1.901 1.547 3.448 3.448 3.448s3.448-1.547 3.448-3.448c0-0.566-0.138-1.101-0.381-1.573h4.913c-0.243 0.472-0.381 1.006-0.381 1.573 0 1.901 1.547 3.448 3.448 3.448s3.448-1.547 3.448-3.448c0-0.566-0.138-1.101-0.381-1.573h2.456c0.518 0 0.938-0.42 0.938-0.938s-0.42-0.938-0.938-0.938h-18.912c-0.916 0-1.792-0.767-1.913-1.675l-0.196-1.471h18.511c0.895 0 1.779-0.342 2.488-0.963s1.165-1.452 1.284-2.339l1.344-10.085c0.125-0.934-0.134-1.822-0.727-2.499zM14.246 28.552c0 0.867-0.706 1.573-1.573 1.573s-1.573-0.706-1.573-1.573c0-0.867 0.706-1.573 1.573-1.573s1.573 0.706 1.573 1.573zM25.292 28.552c0 0.867-0.706 1.573-1.573 1.573s-1.573-0.706-1.573-1.573c0-0.867 0.706-1.573 1.573-1.573s1.573 0.706 1.573 1.573zM16.607 1.875h3.146v4.072c0 0.004-0 0.007-0 0.011s0 0.007 0 0.011v5.010c0 0.518 0.42 0.938 0.938 0.938h0.331l-2.785 2.763-2.785-2.763h0.219c0.518 0 0.938-0.42 0.938-0.938zM29.989 8.323l-1.344 10.086c-0.121 0.908-0.997 1.675-1.913 1.675h-18.761l-1.758-13.188h8.52v3.146h-1.557c-0.38 0-0.722 0.229-0.867 0.58s-0.063 0.755 0.207 1.023l5.061 5.021c0.183 0.181 0.421 0.272 0.66 0.272s0.478-0.091 0.66-0.272l5.061-5.021c0.27-0.268 0.351-0.671 0.207-1.023s-0.487-0.58-0.867-0.58h-1.669v-3.146h7.112c0.394 0 0.738 0.146 0.97 0.411s0.331 0.626 0.279 1.016z"></path>
</symbol>

<symbol id="icon-call" viewBox="0 0 32 32">
<title>call</title>
<path d="M31.16 24.686l-6.477-4.319c-0.822-0.544-1.924-0.365-2.531 0.411l-1.887 2.426c-0.242 0.32-0.683 0.412-1.034 0.218l-0.359-0.198c-1.19-0.648-2.67-1.456-5.652-4.439s-3.791-4.465-4.44-5.652l-0.197-0.359c-0.198-0.351-0.107-0.793 0.213-1.038l2.424-1.886c0.776-0.608 0.955-1.709 0.412-2.531l-4.319-6.477c-0.557-0.837-1.673-1.089-2.535-0.571l-2.708 1.627c-0.851 0.5-1.475 1.311-1.742 2.261-0.975 3.554-0.242 9.687 8.793 18.722 7.187 7.186 12.537 9.119 16.214 9.119 0.846 0.004 1.689-0.106 2.506-0.327 0.951-0.266 1.761-0.891 2.261-1.742l1.629-2.707c0.519-0.862 0.268-1.979-0.57-2.536zM30.812 26.675l-1.625 2.708c-0.359 0.614-0.942 1.066-1.626 1.261-3.281 0.901-9.012 0.155-17.685-8.519s-9.419-14.404-8.519-17.685c0.195-0.685 0.647-1.269 1.262-1.629l2.708-1.625c0.374-0.225 0.859-0.116 1.1 0.247l4.316 6.476c0.236 0.357 0.158 0.835-0.178 1.099l-2.425 1.886c-0.738 0.564-0.949 1.585-0.494 2.395l0.193 0.35c0.682 1.25 1.529 2.805 4.622 5.898s4.648 3.94 5.897 4.622l0.35 0.193c0.81 0.454 1.831 0.244 2.395-0.494l1.886-2.425c0.264-0.336 0.742-0.414 1.099-0.178l6.476 4.319c0.364 0.241 0.473 0.726 0.247 1.1z"></path>
<path d="M18.132 5.336c5.004 0.006 9.060 4.061 9.065 9.065 0 0.295 0.239 0.533 0.533 0.533s0.533-0.239 0.533-0.533c-0.006-5.593-4.539-10.126-10.132-10.132-0.295 0-0.533 0.239-0.533 0.533s0.239 0.533 0.533 0.533z"></path>
<path d="M18.132 8.536c3.238 0.004 5.862 2.628 5.866 5.866 0 0.295 0.239 0.533 0.533 0.533s0.533-0.239 0.533-0.533c-0.004-3.827-3.106-6.928-6.932-6.932-0.295 0-0.533 0.239-0.533 0.533s0.239 0.533 0.533 0.533z"></path>
<path d="M18.132 11.735c1.472 0.002 2.664 1.194 2.666 2.666 0 0.295 0.239 0.533 0.533 0.533s0.533-0.239 0.533-0.533c-0.002-2.061-1.672-3.73-3.733-3.733-0.295 0-0.533 0.239-0.533 0.533s0.239 0.533 0.533 0.533z"></path>
</symbol>

<symbol id="icon-email" viewBox="0 0 32 32">
<title>email</title>
<path d="M30.4 3.733h-28.8c-0.884 0-1.6 0.716-1.6 1.6v21.333c0 0.884 0.716 1.6 1.6 1.6h28.8c0.884 0 1.6-0.716 1.6-1.6v-21.333c0-0.884-0.716-1.6-1.6-1.6zM30.933 26.667c0 0.295-0.239 0.533-0.533 0.533h-28.8c-0.295 0-0.533-0.239-0.533-0.533v-21.333c0-0.295 0.239-0.533 0.533-0.533h28.8c0.295 0 0.533 0.239 0.533 0.533v21.333z"></path>
<path d="M29.38 5.869c-0.141-0.012-0.281 0.032-0.389 0.123l-12.304 10.336c-0.397 0.334-0.976 0.334-1.373 0l-12.304-10.336c-0.146-0.122-0.346-0.158-0.525-0.093s-0.31 0.221-0.343 0.409 0.036 0.379 0.182 0.501l12.304 10.335c0.793 0.668 1.951 0.668 2.745 0l12.304-10.335c0.108-0.091 0.176-0.221 0.188-0.362s-0.032-0.281-0.123-0.389c-0.091-0.108-0.221-0.176-0.362-0.189z"></path>
<path d="M10.258 17.071c-0.189-0.042-0.386 0.021-0.514 0.166l-7.467 8c-0.135 0.138-0.185 0.339-0.13 0.524s0.206 0.326 0.395 0.369c0.189 0.042 0.386-0.021 0.514-0.166l7.467-8c0.135-0.138 0.185-0.339 0.13-0.524s-0.206-0.326-0.395-0.369z"></path>
<path d="M22.257 17.236c-0.129-0.144-0.326-0.208-0.514-0.166s-0.34 0.183-0.395 0.369c-0.055 0.185-0.006 0.386 0.13 0.524l7.467 8c0.203 0.207 0.534 0.215 0.745 0.017s0.227-0.529 0.034-0.745l-7.467-8z"></path>
</symbol>

</defs>
</svg>
